<svg xmlns="http://www.w3.org/2000/svg" xmlns:xlink="http://www.w3.org/1999/xlink" width="500" zoomAndPan="magnify" viewBox="0 0 375 374.999991" height="500" preserveAspectRatio="xMidYMid meet" version="1.0"><defs><clipPath id="d963a1f4c8"><path d="M 117 3.3125 L 261 3.3125 L 261 375 L 117 375 Z M 117 3.3125 " clip-rule="nonzero"/></clipPath><clipPath id="741d28b983"><path d="M 3.3125 117 L 375 117 L 375 261 L 3.3125 261 Z M 3.3125 117 " clip-rule="nonzero"/></clipPath></defs><g clip-path="url(#d963a1f4c8)"><path fill="#ffffff" d="M 189.15625 10.894531 C 153.945312 10.894531 125.296875 39.542969 125.296875 74.761719 L 125.296875 303.546875 C 125.296875 338.765625 153.945312 367.414062 189.15625 367.414062 C 224.367188 367.414062 253.011719 338.765625 253.011719 303.546875 L 253.011719 74.761719 C 253.011719 39.542969 224.367188 10.894531 189.15625 10.894531 Z M 189.15625 374.996094 C 149.753906 374.996094 117.707031 342.9375 117.707031 303.546875 L 117.707031 74.761719 C 117.707031 35.371094 149.753906 3.3125 189.15625 3.3125 C 228.554688 3.3125 260.605469 35.371094 260.605469 74.761719 L 260.605469 303.546875 C 260.605469 342.9375 228.554688 374.996094 189.15625 374.996094 " fill-opacity="1" fill-rule="nonzero"/></g><path fill="#ffffff" d="M 246.449219 26.195312 C 240.898438 26.195312 235.324219 26.917969 229.824219 28.394531 C 213.347656 32.808594 199.574219 43.378906 191.046875 58.152344 L 76.65625 256.289062 C 59.050781 286.789062 69.535156 325.921875 100.027344 343.527344 C 114.792969 352.058594 131.992188 354.304688 148.484375 349.90625 C 164.960938 345.496094 178.734375 334.933594 187.261719 320.148438 L 301.65625 122.019531 C 319.261719 91.523438 308.773438 52.386719 278.285156 34.78125 C 268.445312 29.097656 257.519531 26.195312 246.449219 26.195312 Z M 131.84375 359.699219 C 119.464844 359.699219 107.242188 356.453125 96.234375 350.089844 C 62.117188 330.402344 50.386719 286.613281 70.082031 252.5 L 184.476562 54.363281 C 194.023438 37.835938 209.421875 26.011719 227.859375 21.066406 C 246.308594 16.148438 265.558594 18.679688 282.074219 28.21875 C 316.191406 47.914062 327.921875 91.695312 308.226562 125.8125 L 193.835938 323.949219 C 184.292969 340.464844 168.886719 352.296875 150.445312 357.234375 C 144.296875 358.886719 138.046875 359.699219 131.84375 359.699219 " fill-opacity="1" fill-rule="nonzero"/><path fill="#ffffff" d="M 288.117188 68.109375 C 277.289062 68.109375 266.328125 70.855469 256.289062 76.644531 L 58.152344 191.046875 C 43.378906 199.574219 32.816406 213.347656 28.402344 229.824219 C 23.980469 246.300781 26.253906 263.515625 34.78125 278.285156 C 52.386719 308.765625 91.523438 319.234375 122.019531 301.664062 L 320.15625 187.261719 C 334.925781 178.734375 345.496094 164.960938 349.90625 148.484375 C 354.332031 132.007812 352.058594 114.792969 343.527344 100.027344 C 331.714844 79.566406 310.199219 68.109375 288.117188 68.109375 Z M 90.210938 317.785156 C 65.496094 317.785156 41.425781 304.972656 28.210938 282.074219 C 18.671875 265.550781 16.132812 246.292969 21.074219 227.859375 C 26.011719 209.433594 37.835938 194.015625 54.363281 184.484375 L 252.5 70.082031 C 269.035156 60.535156 288.28125 58.003906 306.714844 62.941406 C 325.152344 67.886719 340.558594 79.707031 350.097656 96.234375 C 369.792969 130.347656 358.0625 174.128906 323.949219 193.824219 L 125.8125 308.226562 C 114.585938 314.707031 102.316406 317.785156 90.210938 317.785156 " fill-opacity="1" fill-rule="nonzero"/><g clip-path="url(#741d28b983)"><path fill="#ffffff" d="M 74.761719 125.296875 C 39.542969 125.296875 10.894531 153.9375 10.894531 189.15625 C 10.894531 224.375 39.542969 253.011719 74.761719 253.011719 L 303.546875 253.011719 C 338.765625 253.011719 367.414062 224.375 367.414062 189.15625 C 367.414062 153.9375 338.765625 125.296875 303.546875 125.296875 Z M 303.546875 260.605469 L 74.761719 260.605469 C 35.363281 260.605469 3.3125 228.546875 3.3125 189.15625 C 3.3125 149.761719 35.363281 117.707031 74.761719 117.707031 L 303.546875 117.707031 C 342.949219 117.707031 374.996094 149.761719 374.996094 189.15625 C 374.996094 228.546875 342.949219 260.605469 303.546875 260.605469 " fill-opacity="1" fill-rule="nonzero"/></g><path fill="#ffffff" d="M 90.195312 68.109375 C 68.109375 68.109375 46.597656 79.558594 34.78125 100.027344 C 26.253906 114.792969 23.980469 132.007812 28.402344 148.484375 C 32.816406 164.960938 43.378906 178.734375 58.152344 187.261719 L 256.289062 301.664062 C 286.789062 319.253906 325.921875 308.773438 343.527344 278.285156 C 352.058594 263.515625 354.332031 246.300781 349.90625 229.824219 C 345.496094 213.347656 334.925781 199.574219 320.15625 191.046875 L 122.019531 76.644531 C 111.988281 70.863281 101.019531 68.109375 90.195312 68.109375 Z M 288.109375 317.832031 C 275.722656 317.832031 263.507812 314.582031 252.5 308.226562 L 54.363281 193.824219 C 37.835938 184.292969 26.011719 168.878906 21.074219 150.453125 C 16.132812 132.015625 18.671875 112.761719 28.210938 96.234375 C 47.90625 62.128906 91.695312 50.378906 125.8125 70.082031 L 323.949219 184.484375 C 358.0625 204.179688 369.792969 247.960938 350.097656 282.074219 C 340.558594 298.601562 325.152344 310.425781 306.714844 315.363281 C 300.5625 317.011719 294.3125 317.832031 288.109375 317.832031 " fill-opacity="1" fill-rule="nonzero"/><path fill="#ffffff" d="M 131.859375 26.195312 C 120.792969 26.195312 109.867188 29.097656 100.027344 34.78125 C 69.535156 52.386719 59.050781 91.523438 76.65625 122.019531 L 191.046875 320.148438 C 199.574219 334.933594 213.347656 345.496094 229.824219 349.90625 C 246.300781 354.304688 263.507812 352.058594 278.285156 343.527344 C 308.773438 325.921875 319.261719 286.789062 301.65625 256.289062 L 187.261719 58.152344 C 178.734375 43.378906 164.960938 32.808594 148.484375 28.394531 C 142.984375 26.925781 137.402344 26.195312 131.859375 26.195312 Z M 246.46875 359.699219 C 240.261719 359.699219 234.015625 358.886719 227.859375 357.234375 C 209.421875 352.296875 194.015625 340.464844 184.476562 323.949219 L 70.082031 125.8125 C 50.386719 91.695312 62.117188 47.90625 96.234375 28.21875 C 112.761719 18.679688 132.023438 16.148438 150.445312 21.066406 C 168.886719 26.011719 184.285156 37.835938 193.835938 54.363281 L 308.226562 252.5 C 327.921875 286.613281 316.191406 330.394531 282.074219 350.089844 C 271.066406 356.445312 258.847656 359.699219 246.46875 359.699219 " fill-opacity="1" fill-rule="nonzero"/></svg>
